<svg xmlns="http://www.w3.org/2000/svg" width="736" height="996" viewBox="0 0 736 996">
<g fill="none" stroke="#00ffff" stroke-width="1">
<path d="M 453 662 L 452 663 L 452 667 L 454 669 L 454 731 L 452 733 L 452 734 L 451 735 L 451 736 L 452 737 L 452 738 L 453 739 L 456 739 L 458 737 L 458 734 L 455 731 L 456 730 L 456 669 L 458 667 L 458 663 L 457 662 Z" />
<path d="M 473 553 L 472 554 L 472 605 L 470 607 L 470 611 L 471 611 L 472 612 L 474 612 L 475 611 L 476 611 L 476 607 L 474 605 L 474 556 L 475 555 L 478 555 L 479 556 L 479 569 L 477 571 L 477 574 L 478 575 L 479 575 L 480 576 L 481 575 L 483 575 L 483 574 L 484 573 L 484 572 L 483 571 L 483 570 L 481 568 L 481 554 L 480 553 Z" />
<path d="M 224 460 L 223 461 L 223 462 L 224 463 L 224 464 L 223 465 L 221 463 L 220 463 L 220 464 L 218 466 L 218 468 L 219 469 L 219 471 L 218 472 L 219 473 L 221 473 L 222 474 L 222 476 L 223 477 L 224 476 L 224 475 L 225 474 L 226 475 L 226 478 L 228 478 L 228 475 L 229 474 L 230 475 L 233 475 L 234 474 L 233 473 L 233 470 L 234 469 L 235 469 L 236 468 L 236 467 L 233 464 L 233 463 L 232 462 L 231 462 L 230 463 L 228 461 L 227 461 L 226 462 Z" />
<path d="M 220 454 L 220 456 Z" />
<path d="M 234 451 L 234 452 Z" />
<path d="M 225 433 L 224 434 L 223 434 L 223 436 L 222 437 L 220 437 L 220 439 L 221 439 L 222 440 L 221 441 L 219 441 L 219 442 L 220 443 L 221 443 L 222 444 L 222 445 L 221 446 L 220 445 L 219 446 L 220 447 L 220 448 L 221 447 L 222 448 L 222 450 L 224 450 L 225 449 L 227 451 L 228 450 L 228 449 L 229 448 L 231 450 L 232 450 L 232 448 L 233 447 L 234 447 L 236 445 L 236 444 L 235 445 L 233 443 L 234 442 L 236 442 L 236 440 L 235 440 L 232 437 L 232 435 L 231 434 L 230 434 L 229 435 L 227 435 Z" />
<path d="M 224 406 L 223 407 L 222 407 L 221 408 L 220 408 L 219 409 L 219 410 L 218 411 L 218 413 L 217 414 L 217 417 L 218 418 L 218 420 L 220 422 L 220 423 L 221 423 L 222 424 L 223 424 L 224 425 L 229 425 L 230 424 L 231 424 L 232 423 L 233 423 L 234 422 L 234 421 L 235 420 L 235 419 L 236 418 L 236 412 L 235 411 L 235 410 L 233 408 L 232 408 L 231 407 L 230 407 L 229 406 Z" />
<path d="M 469 404 L 468 405 L 468 409 L 469 410 L 473 410 L 474 409 L 474 408 L 475 407 L 476 407 L 477 408 L 478 407 L 479 408 L 480 407 L 485 407 L 486 408 L 487 408 L 488 407 L 490 409 L 490 410 L 494 410 L 495 409 L 495 408 L 496 407 L 496 406 L 494 404 L 491 404 L 490 405 L 489 405 L 488 406 L 475 406 L 473 404 Z" />
<path d="M 241 382 L 240 383 L 240 451 L 241 452 L 243 452 L 243 382 Z" />
<path d="M 355 172 L 355 173 L 356 172 Z" />
<path d="M 336 67 L 335 68 L 334 68 L 333 69 L 333 70 L 332 71 L 332 78 L 335 81 L 336 81 L 338 83 L 338 123 L 336 125 L 336 126 L 333 129 L 333 130 L 330 133 L 330 134 L 327 137 L 327 138 L 324 141 L 324 142 L 322 144 L 322 145 L 318 149 L 318 150 L 316 152 L 316 153 L 313 156 L 313 157 L 310 160 L 310 161 L 308 163 L 307 163 L 306 162 L 307 161 L 307 158 L 306 157 L 306 156 L 307 155 L 307 153 L 311 149 L 311 148 L 315 144 L 315 143 L 319 139 L 319 138 L 322 135 L 324 135 L 325 134 L 325 132 L 323 130 L 321 130 L 320 131 L 320 135 L 319 136 L 318 136 L 318 137 L 313 142 L 313 143 L 310 146 L 310 147 L 307 150 L 307 151 L 305 153 L 305 168 L 302 171 L 302 172 L 299 175 L 299 176 L 297 178 L 297 181 L 296 182 L 296 183 L 297 184 L 297 207 L 296 208 L 296 215 L 297 216 L 297 218 L 294 221 L 293 221 L 287 227 L 286 227 L 282 231 L 282 265 L 281 266 L 280 266 L 279 267 L 279 274 L 277 276 L 276 275 L 275 276 L 273 274 L 273 266 L 272 266 L 270 264 L 270 222 L 271 221 L 270 220 L 270 219 L 268 217 L 267 217 L 262 212 L 261 212 L 257 208 L 256 208 L 251 203 L 251 194 L 252 193 L 252 192 L 261 183 L 262 183 L 263 182 L 263 181 L 264 180 L 265 180 L 265 179 L 266 178 L 266 147 L 267 146 L 268 146 L 269 145 L 269 126 L 260 126 L 260 145 L 261 146 L 262 146 L 263 147 L 262 148 L 262 171 L 263 172 L 262 173 L 262 177 L 260 179 L 259 179 L 259 180 L 257 182 L 256 182 L 256 183 L 254 185 L 253 185 L 253 186 L 252 187 L 251 186 L 251 166 L 252 165 L 253 165 L 253 148 L 252 147 L 250 147 L 249 148 L 248 148 L 247 147 L 245 147 L 245 165 L 246 165 L 247 166 L 247 205 L 251 209 L 252 209 L 257 214 L 258 214 L 262 218 L 263 218 L 265 220 L 265 221 L 266 221 L 267 222 L 267 265 L 266 266 L 265 266 L 265 274 L 263 276 L 260 276 L 259 275 L 259 266 L 256 266 L 255 265 L 255 231 L 254 230 L 253 230 L 249 226 L 248 226 L 246 224 L 245 224 L 241 220 L 240 220 L 237 217 L 236 217 L 232 213 L 231 213 L 228 210 L 227 210 L 226 209 L 226 181 L 229 178 L 229 174 L 227 172 L 222 172 L 220 174 L 220 178 L 222 180 L 223 180 L 224 181 L 224 210 L 225 211 L 226 211 L 229 214 L 230 214 L 233 217 L 234 217 L 238 221 L 239 221 L 243 225 L 244 225 L 247 228 L 248 228 L 251 231 L 252 231 L 253 232 L 253 242 L 252 243 L 251 243 L 248 240 L 247 240 L 244 237 L 243 237 L 241 235 L 240 235 L 237 232 L 236 232 L 233 229 L 232 229 L 231 228 L 230 229 L 232 231 L 233 231 L 238 236 L 239 236 L 241 238 L 242 238 L 246 242 L 247 242 L 249 244 L 250 244 L 253 247 L 253 265 L 252 266 L 251 266 L 251 274 L 250 275 L 249 275 L 248 276 L 248 278 L 247 279 L 246 279 L 245 278 L 239 278 L 238 279 L 238 286 L 247 286 L 248 287 L 248 292 L 247 293 L 238 293 L 238 294 L 237 295 L 233 295 L 232 296 L 231 295 L 224 295 L 223 294 L 223 272 L 222 271 L 224 269 L 225 269 L 229 265 L 229 258 L 227 256 L 227 255 L 226 254 L 225 254 L 224 253 L 217 253 L 215 255 L 214 255 L 213 256 L 213 257 L 212 258 L 212 264 L 213 265 L 213 266 L 216 269 L 217 269 L 219 271 L 219 298 L 220 299 L 237 299 L 239 301 L 240 300 L 247 300 L 248 301 L 248 306 L 247 307 L 239 307 L 237 309 L 228 309 L 227 308 L 227 307 L 226 307 L 225 306 L 224 307 L 209 307 L 209 311 L 210 312 L 210 313 L 209 314 L 210 315 L 210 316 L 226 316 L 227 315 L 227 314 L 228 313 L 237 313 L 238 314 L 239 314 L 240 315 L 247 315 L 248 316 L 248 320 L 247 321 L 238 321 L 238 323 L 237 324 L 207 324 L 203 320 L 203 319 L 199 315 L 199 314 L 194 309 L 194 308 L 189 303 L 189 302 L 185 298 L 185 297 L 184 296 L 184 292 L 182 290 L 178 290 L 177 291 L 177 292 L 176 293 L 176 295 L 177 296 L 177 297 L 178 298 L 179 298 L 180 299 L 181 299 L 182 298 L 183 298 L 184 299 L 184 300 L 188 304 L 188 305 L 193 310 L 193 311 L 197 315 L 197 316 L 203 322 L 203 323 L 206 326 L 237 326 L 238 327 L 238 328 L 239 328 L 240 329 L 246 329 L 247 328 L 248 329 L 248 334 L 247 335 L 239 335 L 237 337 L 228 337 L 227 336 L 227 335 L 226 334 L 224 334 L 223 335 L 216 335 L 215 334 L 213 334 L 212 335 L 211 334 L 210 334 L 210 343 L 227 343 L 227 342 L 228 341 L 237 341 L 239 343 L 247 343 L 248 344 L 248 348 L 247 349 L 239 349 L 238 350 L 238 351 L 237 352 L 215 352 L 200 367 L 196 367 L 194 369 L 194 373 L 195 374 L 195 375 L 200 375 L 202 373 L 202 368 L 216 354 L 219 354 L 220 353 L 221 354 L 231 354 L 232 353 L 233 354 L 235 354 L 236 353 L 237 353 L 238 354 L 238 356 L 239 357 L 247 357 L 248 358 L 248 362 L 247 363 L 239 363 L 237 365 L 224 365 L 223 366 L 222 365 L 221 366 L 220 366 L 197 389 L 176 389 L 173 386 L 171 386 L 170 385 L 169 386 L 168 386 L 166 388 L 166 391 L 168 393 L 169 393 L 170 394 L 171 394 L 172 393 L 173 393 L 176 390 L 199 390 L 222 367 L 237 367 L 238 368 L 238 370 L 239 371 L 247 371 L 248 372 L 248 374 L 250 374 L 251 375 L 251 383 L 252 384 L 252 453 L 251 454 L 251 455 L 244 462 L 244 463 L 243 464 L 243 488 L 234 497 L 234 578 L 236 578 L 237 577 L 236 576 L 236 499 L 241 494 L 242 494 L 243 495 L 243 632 L 242 633 L 242 634 L 243 635 L 243 637 L 244 638 L 244 639 L 246 641 L 246 642 L 249 645 L 249 646 L 251 648 L 251 649 L 253 651 L 253 652 L 254 653 L 254 654 L 257 657 L 257 658 L 259 660 L 259 661 L 261 663 L 261 706 L 259 708 L 258 708 L 256 710 L 256 711 L 255 712 L 255 719 L 258 722 L 260 722 L 261 723 L 264 723 L 265 722 L 266 722 L 267 721 L 268 721 L 268 720 L 270 718 L 270 712 L 269 711 L 269 710 L 267 708 L 266 708 L 264 706 L 264 660 L 261 657 L 261 656 L 260 655 L 260 654 L 257 651 L 257 650 L 254 647 L 254 646 L 252 644 L 252 643 L 250 641 L 250 640 L 249 639 L 249 638 L 246 635 L 246 466 L 250 462 L 250 461 L 251 460 L 252 460 L 252 459 L 256 455 L 256 385 L 257 384 L 258 384 L 259 383 L 259 375 L 260 374 L 264 374 L 265 375 L 265 384 L 267 384 L 268 385 L 268 622 L 270 624 L 270 625 L 272 627 L 272 628 L 275 631 L 275 632 L 276 633 L 276 661 L 273 664 L 273 665 L 272 666 L 272 668 L 273 669 L 273 670 L 275 672 L 280 672 L 281 671 L 282 671 L 282 670 L 283 669 L 283 665 L 282 664 L 282 663 L 281 662 L 280 662 L 278 660 L 278 632 L 276 630 L 276 629 L 273 626 L 273 625 L 271 623 L 271 622 L 270 621 L 270 620 L 269 619 L 269 617 L 270 616 L 270 504 L 269 503 L 269 496 L 270 495 L 270 488 L 269 487 L 269 486 L 270 485 L 270 400 L 269 399 L 269 388 L 270 387 L 270 386 L 269 385 L 270 384 L 272 384 L 273 383 L 273 375 L 274 374 L 278 374 L 279 375 L 279 383 L 280 384 L 281 384 L 282 385 L 282 465 L 281 466 L 280 466 L 279 467 L 278 467 L 278 468 L 277 469 L 277 470 L 276 471 L 276 474 L 277 475 L 277 476 L 278 477 L 278 478 L 279 478 L 280 479 L 281 479 L 282 480 L 282 534 L 283 535 L 283 536 L 284 536 L 286 538 L 287 538 L 288 539 L 289 539 L 290 540 L 291 540 L 292 541 L 293 541 L 295 543 L 296 543 L 298 545 L 299 545 L 300 546 L 301 546 L 303 548 L 304 548 L 305 549 L 306 549 L 308 551 L 309 551 L 310 552 L 310 553 L 311 554 L 311 583 L 310 584 L 309 584 L 308 585 L 308 599 L 315 599 L 315 585 L 314 584 L 313 584 L 312 583 L 312 572 L 313 571 L 313 570 L 312 569 L 312 568 L 313 567 L 313 566 L 312 565 L 312 551 L 310 549 L 309 549 L 308 548 L 307 548 L 306 547 L 305 547 L 304 546 L 303 546 L 301 544 L 300 544 L 298 542 L 297 542 L 296 541 L 295 541 L 294 540 L 293 540 L 291 538 L 290 538 L 288 536 L 287 536 L 284 533 L 284 480 L 285 479 L 287 479 L 288 478 L 289 478 L 289 477 L 290 476 L 290 474 L 291 473 L 291 472 L 290 471 L 290 469 L 287 466 L 286 466 L 284 464 L 284 385 L 285 384 L 287 384 L 287 375 L 288 374 L 292 374 L 294 376 L 294 384 L 295 384 L 296 385 L 296 527 L 298 529 L 299 529 L 300 530 L 301 530 L 303 532 L 304 532 L 306 534 L 307 534 L 308 535 L 309 535 L 310 536 L 311 536 L 313 538 L 314 538 L 316 540 L 317 540 L 318 541 L 319 541 L 320 542 L 321 542 L 322 543 L 323 543 L 324 544 L 324 559 L 322 561 L 321 561 L 319 563 L 319 565 L 318 566 L 319 567 L 318 568 L 319 569 L 319 570 L 320 571 L 320 572 L 321 573 L 322 573 L 323 574 L 328 574 L 329 573 L 330 573 L 332 571 L 332 570 L 333 569 L 333 566 L 332 565 L 332 563 L 328 559 L 328 544 L 327 543 L 327 542 L 326 541 L 325 541 L 322 538 L 321 538 L 320 537 L 319 537 L 318 536 L 317 536 L 315 534 L 314 534 L 313 533 L 312 533 L 310 531 L 309 531 L 307 529 L 306 529 L 305 528 L 304 528 L 302 526 L 301 526 L 299 524 L 299 385 L 301 383 L 301 375 L 302 374 L 306 374 L 308 376 L 308 384 L 309 384 L 310 385 L 310 455 L 355 455 L 357 457 L 365 457 L 366 458 L 366 463 L 365 464 L 364 463 L 363 464 L 362 463 L 361 463 L 360 464 L 359 463 L 358 463 L 355 466 L 326 466 L 325 467 L 325 481 L 326 482 L 355 482 L 356 483 L 356 485 L 365 485 L 366 486 L 366 491 L 365 492 L 357 492 L 357 495 L 356 496 L 357 497 L 356 498 L 356 499 L 357 500 L 365 500 L 366 501 L 366 505 L 365 506 L 357 506 L 355 508 L 351 508 L 350 507 L 350 505 L 334 505 L 334 514 L 349 514 L 350 513 L 350 512 L 351 511 L 355 511 L 356 512 L 356 513 L 357 514 L 365 514 L 366 515 L 366 516 L 367 517 L 368 516 L 369 517 L 369 526 L 370 526 L 372 528 L 372 555 L 371 556 L 368 556 L 368 575 L 378 575 L 379 574 L 379 557 L 378 556 L 376 556 L 375 555 L 375 528 L 377 526 L 377 518 L 378 517 L 379 517 L 380 516 L 381 517 L 382 517 L 383 518 L 383 526 L 385 526 L 386 527 L 386 668 L 385 669 L 384 669 L 384 670 L 383 671 L 382 671 L 382 672 L 380 674 L 379 674 L 379 675 L 376 678 L 375 678 L 375 679 L 374 680 L 373 680 L 372 681 L 372 706 L 371 707 L 370 707 L 367 710 L 367 711 L 366 712 L 366 719 L 355 730 L 355 731 L 356 732 L 356 734 L 355 735 L 356 736 L 356 753 L 355 754 L 355 755 L 356 756 L 356 757 L 355 758 L 355 759 L 356 760 L 356 767 L 355 768 L 355 783 L 356 784 L 356 800 L 355 801 L 355 802 L 356 803 L 356 804 L 353 807 L 353 811 L 354 812 L 358 812 L 359 811 L 359 807 L 357 805 L 357 761 L 358 760 L 360 762 L 360 789 L 361 790 L 362 789 L 362 762 L 361 761 L 361 760 L 360 759 L 360 758 L 359 757 L 359 756 L 358 755 L 358 754 L 357 753 L 357 731 L 359 729 L 359 728 L 360 727 L 361 727 L 368 720 L 370 722 L 371 722 L 372 723 L 372 825 L 371 826 L 371 828 L 369 830 L 369 831 L 368 832 L 368 833 L 367 834 L 367 835 L 366 836 L 366 837 L 365 838 L 365 903 L 364 904 L 361 904 L 361 927 L 362 928 L 363 928 L 364 927 L 365 927 L 366 928 L 368 928 L 369 927 L 370 928 L 371 928 L 372 927 L 373 927 L 373 905 L 372 904 L 370 904 L 369 903 L 369 839 L 370 838 L 370 837 L 371 836 L 371 835 L 372 834 L 372 833 L 373 832 L 373 831 L 374 830 L 374 829 L 375 828 L 375 723 L 376 722 L 377 722 L 378 721 L 379 721 L 380 720 L 380 719 L 381 718 L 381 717 L 382 716 L 382 714 L 381 713 L 381 711 L 380 710 L 380 709 L 379 708 L 378 708 L 377 707 L 376 707 L 375 706 L 375 684 L 378 681 L 379 681 L 379 680 L 381 678 L 382 678 L 382 677 L 385 674 L 386 675 L 386 739 L 390 743 L 391 743 L 392 744 L 392 745 L 404 757 L 404 778 L 392 790 L 391 790 L 391 791 L 390 792 L 390 903 L 389 904 L 386 904 L 385 905 L 385 927 L 386 928 L 388 928 L 389 927 L 392 927 L 393 928 L 395 928 L 396 927 L 397 927 L 397 904 L 394 904 L 393 903 L 393 795 L 395 793 L 395 792 L 397 790 L 398 790 L 398 789 L 400 787 L 401 787 L 403 785 L 404 785 L 405 786 L 404 787 L 404 788 L 405 789 L 405 791 L 404 792 L 404 858 L 409 863 L 410 863 L 411 864 L 411 865 L 412 865 L 417 870 L 418 870 L 422 874 L 423 874 L 425 876 L 425 877 L 426 877 L 427 878 L 427 879 L 428 880 L 428 903 L 427 904 L 425 904 L 424 905 L 424 928 L 434 928 L 436 926 L 436 905 L 435 904 L 432 904 L 431 903 L 431 876 L 428 873 L 427 873 L 422 868 L 421 868 L 417 864 L 416 864 L 415 863 L 415 862 L 414 862 L 408 856 L 408 755 L 390 737 L 390 736 L 389 735 L 389 673 L 390 672 L 389 671 L 389 670 L 390 669 L 390 668 L 389 667 L 389 591 L 390 590 L 393 593 L 393 594 L 395 596 L 395 597 L 396 598 L 396 599 L 398 601 L 398 602 L 400 604 L 400 605 L 402 607 L 402 608 L 403 609 L 403 610 L 404 611 L 404 698 L 405 699 L 407 699 L 407 698 L 408 697 L 408 610 L 407 609 L 407 608 L 406 607 L 406 606 L 404 604 L 404 603 L 402 601 L 402 600 L 401 599 L 401 598 L 398 595 L 398 594 L 397 593 L 397 592 L 396 591 L 396 590 L 393 587 L 393 586 L 391 584 L 391 583 L 390 582 L 390 581 L 389 580 L 389 528 L 391 526 L 391 518 L 392 517 L 396 517 L 397 518 L 397 525 L 398 526 L 398 527 L 399 526 L 400 527 L 400 555 L 399 556 L 396 556 L 396 575 L 406 575 L 407 574 L 407 557 L 406 556 L 404 556 L 403 555 L 403 528 L 405 526 L 405 518 L 407 516 L 408 516 L 409 517 L 410 517 L 411 518 L 411 519 L 412 520 L 411 521 L 411 522 L 412 523 L 412 524 L 411 525 L 411 526 L 413 526 L 415 528 L 415 748 L 423 756 L 423 839 L 422 840 L 421 840 L 421 841 L 420 842 L 420 843 L 421 844 L 421 845 L 422 845 L 423 846 L 425 846 L 427 844 L 427 841 L 425 839 L 425 759 L 426 758 L 434 766 L 435 766 L 441 772 L 441 795 L 438 798 L 438 802 L 439 803 L 443 803 L 444 802 L 444 801 L 445 800 L 444 799 L 444 797 L 442 795 L 442 770 L 435 763 L 434 763 L 425 754 L 424 754 L 416 746 L 416 669 L 417 668 L 416 667 L 416 665 L 417 664 L 433 680 L 433 744 L 457 768 L 457 778 L 454 781 L 454 784 L 455 785 L 460 785 L 461 784 L 461 781 L 459 779 L 459 768 L 458 767 L 458 766 L 435 743 L 435 679 L 416 660 L 416 528 L 418 526 L 419 526 L 419 518 L 420 517 L 423 517 L 424 516 L 426 518 L 426 523 L 425 524 L 425 525 L 428 528 L 428 616 L 427 617 L 426 617 L 425 618 L 424 618 L 424 619 L 422 621 L 422 626 L 423 627 L 423 628 L 426 631 L 433 631 L 434 630 L 435 630 L 435 629 L 437 627 L 437 621 L 435 619 L 435 618 L 434 617 L 432 617 L 431 616 L 431 527 L 432 526 L 433 526 L 434 525 L 433 524 L 433 520 L 434 519 L 434 517 L 435 516 L 438 516 L 440 518 L 440 526 L 442 526 L 443 527 L 443 543 L 449 549 L 449 550 L 450 551 L 451 551 L 452 552 L 452 586 L 442 596 L 442 681 L 443 681 L 444 680 L 444 597 L 448 593 L 449 593 L 449 592 L 451 590 L 452 591 L 452 603 L 449 606 L 449 610 L 450 611 L 454 611 L 455 610 L 455 609 L 456 608 L 456 607 L 455 606 L 455 605 L 453 603 L 453 592 L 454 591 L 453 590 L 453 588 L 454 587 L 454 586 L 453 585 L 453 579 L 454 578 L 457 581 L 457 582 L 461 586 L 461 587 L 465 591 L 465 635 L 463 637 L 463 641 L 464 642 L 468 642 L 469 641 L 469 637 L 467 635 L 467 591 L 466 590 L 466 589 L 462 585 L 462 584 L 459 581 L 459 580 L 454 575 L 454 574 L 453 573 L 453 551 L 450 548 L 450 547 L 445 542 L 445 527 L 446 526 L 448 526 L 448 518 L 449 517 L 451 517 L 452 516 L 454 518 L 454 526 L 456 526 L 458 528 L 458 529 L 457 530 L 457 532 L 455 534 L 455 544 L 462 544 L 462 534 L 461 533 L 460 533 L 459 532 L 459 528 L 460 527 L 461 527 L 462 526 L 462 517 L 463 516 L 464 517 L 465 516 L 465 515 L 466 514 L 474 514 L 476 512 L 493 512 L 494 513 L 494 544 L 492 546 L 491 546 L 489 548 L 489 550 L 488 551 L 488 552 L 489 553 L 489 555 L 492 558 L 494 558 L 495 559 L 496 559 L 497 558 L 499 558 L 501 556 L 501 555 L 502 554 L 502 549 L 501 548 L 501 547 L 500 546 L 499 546 L 498 545 L 497 545 L 496 544 L 496 510 L 495 509 L 476 509 L 475 508 L 475 507 L 474 506 L 466 506 L 465 505 L 465 501 L 466 500 L 473 500 L 476 497 L 509 497 L 516 504 L 516 505 L 517 505 L 521 509 L 521 510 L 522 510 L 523 511 L 534 511 L 536 513 L 536 514 L 541 514 L 543 512 L 543 509 L 542 508 L 542 507 L 540 507 L 539 506 L 537 506 L 536 507 L 536 508 L 535 509 L 524 509 L 510 495 L 475 495 L 474 494 L 475 493 L 474 492 L 466 492 L 465 491 L 465 486 L 466 485 L 475 485 L 475 484 L 476 483 L 510 483 L 527 500 L 540 500 L 543 503 L 548 503 L 549 502 L 549 497 L 548 496 L 543 496 L 541 498 L 536 498 L 535 499 L 534 499 L 533 498 L 528 498 L 511 481 L 476 481 L 475 480 L 475 478 L 466 478 L 465 477 L 465 472 L 466 471 L 474 471 L 476 469 L 511 469 L 531 489 L 560 489 L 563 492 L 567 492 L 569 490 L 569 487 L 568 486 L 568 485 L 567 485 L 566 484 L 564 484 L 563 485 L 562 485 L 561 486 L 561 487 L 560 488 L 533 488 L 513 468 L 512 468 L 511 467 L 476 467 L 475 466 L 475 465 L 473 463 L 472 463 L 471 464 L 470 463 L 469 463 L 468 464 L 466 464 L 465 463 L 465 458 L 466 457 L 474 457 L 476 455 L 525 455 L 526 456 L 530 456 L 531 455 L 531 452 L 529 450 L 527 450 L 525 452 L 479 452 L 478 453 L 477 452 L 475 452 L 474 451 L 474 449 L 466 449 L 465 448 L 465 444 L 466 443 L 474 443 L 475 442 L 475 441 L 476 440 L 486 440 L 487 441 L 487 442 L 495 442 L 496 441 L 496 436 L 495 435 L 487 435 L 487 436 L 485 438 L 484 437 L 476 437 L 474 435 L 466 435 L 465 434 L 465 430 L 466 429 L 474 429 L 476 427 L 506 427 L 507 426 L 507 379 L 505 379 L 504 378 L 503 379 L 484 379 L 483 378 L 483 373 L 485 371 L 485 362 L 484 361 L 484 360 L 483 360 L 482 361 L 480 361 L 479 360 L 478 360 L 478 372 L 479 372 L 480 373 L 480 381 L 481 381 L 482 382 L 485 382 L 486 381 L 503 381 L 504 382 L 504 391 L 505 392 L 505 423 L 504 424 L 476 424 L 475 423 L 475 422 L 474 421 L 466 421 L 465 420 L 465 419 L 464 418 L 463 418 L 462 417 L 462 409 L 461 408 L 460 408 L 459 407 L 459 362 L 461 360 L 461 340 L 460 340 L 459 339 L 457 339 L 456 340 L 455 339 L 455 361 L 456 361 L 457 362 L 457 407 L 456 408 L 455 408 L 454 409 L 454 417 L 453 418 L 448 418 L 447 417 L 448 416 L 448 410 L 447 409 L 447 408 L 441 408 L 440 409 L 440 417 L 439 418 L 435 418 L 434 417 L 434 410 L 433 409 L 433 408 L 432 408 L 431 407 L 431 317 L 432 316 L 433 316 L 435 314 L 435 312 L 436 311 L 435 310 L 435 308 L 432 305 L 427 305 L 426 306 L 425 306 L 424 307 L 424 308 L 423 309 L 358 309 L 356 307 L 348 307 L 347 306 L 347 301 L 348 300 L 354 300 L 355 301 L 358 298 L 381 298 L 382 299 L 382 301 L 399 301 L 399 292 L 383 292 L 382 293 L 382 294 L 381 295 L 358 295 L 357 294 L 357 293 L 352 293 L 351 292 L 348 292 L 347 291 L 347 287 L 348 286 L 356 286 L 356 284 L 357 283 L 364 283 L 364 266 L 365 265 L 372 265 L 373 264 L 373 263 L 372 262 L 373 261 L 373 248 L 372 247 L 372 237 L 374 235 L 374 234 L 379 229 L 379 228 L 382 225 L 382 224 L 389 217 L 389 216 L 391 214 L 391 213 L 392 212 L 393 213 L 394 213 L 395 212 L 396 212 L 397 211 L 397 207 L 395 205 L 392 205 L 390 207 L 390 211 L 389 212 L 389 213 L 385 217 L 385 218 L 380 223 L 380 224 L 376 228 L 376 229 L 372 233 L 372 234 L 371 235 L 371 238 L 370 239 L 371 240 L 371 259 L 370 260 L 371 261 L 371 262 L 370 263 L 365 263 L 364 262 L 364 228 L 369 223 L 369 222 L 374 217 L 374 216 L 378 212 L 378 211 L 382 207 L 382 206 L 387 201 L 387 200 L 391 196 L 391 195 L 395 191 L 395 190 L 400 185 L 403 185 L 404 184 L 404 182 L 405 181 L 402 178 L 400 178 L 399 179 L 398 179 L 398 180 L 397 181 L 397 185 L 393 189 L 393 190 L 389 194 L 389 195 L 384 200 L 384 201 L 379 206 L 379 207 L 376 210 L 376 211 L 375 212 L 374 212 L 374 213 L 372 215 L 372 216 L 366 222 L 366 223 L 362 227 L 362 280 L 361 281 L 357 281 L 356 280 L 356 279 L 355 278 L 354 278 L 353 279 L 352 278 L 349 278 L 348 279 L 347 278 L 347 276 L 345 276 L 343 274 L 343 266 L 336 266 L 336 275 L 335 276 L 332 276 L 331 275 L 330 275 L 329 274 L 329 266 L 328 266 L 327 265 L 327 214 L 330 211 L 330 210 L 335 205 L 335 204 L 340 199 L 340 198 L 345 193 L 345 192 L 350 187 L 350 186 L 354 182 L 354 181 L 358 177 L 358 176 L 363 171 L 363 170 L 368 165 L 368 164 L 374 158 L 374 157 L 378 153 L 378 152 L 383 147 L 383 146 L 387 142 L 387 141 L 391 137 L 391 136 L 392 135 L 393 135 L 393 134 L 394 133 L 394 132 L 395 131 L 394 130 L 394 105 L 396 103 L 397 103 L 398 102 L 398 97 L 396 95 L 392 95 L 391 96 L 390 96 L 390 97 L 389 98 L 389 100 L 390 101 L 390 102 L 391 103 L 392 103 L 393 104 L 393 131 L 392 132 L 392 133 L 391 134 L 390 134 L 390 135 L 388 137 L 388 138 L 381 145 L 381 146 L 377 150 L 377 151 L 372 156 L 372 157 L 368 161 L 368 162 L 363 167 L 363 168 L 357 174 L 357 175 L 353 179 L 353 180 L 348 185 L 348 186 L 344 190 L 344 191 L 339 196 L 339 197 L 333 203 L 333 204 L 329 208 L 329 209 L 325 213 L 325 265 L 324 266 L 322 266 L 322 274 L 321 275 L 320 275 L 319 276 L 317 276 L 315 274 L 315 266 L 313 264 L 313 212 L 314 211 L 314 210 L 317 207 L 317 206 L 320 203 L 320 202 L 324 198 L 324 197 L 327 194 L 327 193 L 331 189 L 331 188 L 334 185 L 334 184 L 338 180 L 338 179 L 343 174 L 343 173 L 345 171 L 345 170 L 346 169 L 347 169 L 347 168 L 350 165 L 350 164 L 353 161 L 353 160 L 356 157 L 356 156 L 359 153 L 359 152 L 360 151 L 361 151 L 361 150 L 364 147 L 364 146 L 367 143 L 367 142 L 372 137 L 374 137 L 375 136 L 377 136 L 378 135 L 378 134 L 379 133 L 379 129 L 378 128 L 378 127 L 377 126 L 371 126 L 370 127 L 369 127 L 369 128 L 368 129 L 368 135 L 366 137 L 366 138 L 362 142 L 362 143 L 358 147 L 358 148 L 354 152 L 354 153 L 352 155 L 352 156 L 348 160 L 348 161 L 344 165 L 344 166 L 341 169 L 341 170 L 337 174 L 336 173 L 336 167 L 337 166 L 337 165 L 341 161 L 341 160 L 347 154 L 347 153 L 351 149 L 353 149 L 354 148 L 355 148 L 355 147 L 356 146 L 356 143 L 353 140 L 351 140 L 350 141 L 349 141 L 348 142 L 348 146 L 344 150 L 344 151 L 341 154 L 341 155 L 336 160 L 336 161 L 335 162 L 334 162 L 334 163 L 333 164 L 333 179 L 332 180 L 332 181 L 329 184 L 329 185 L 326 188 L 326 189 L 322 193 L 322 194 L 320 196 L 320 197 L 319 198 L 318 198 L 318 199 L 315 202 L 315 203 L 310 208 L 310 264 L 308 266 L 308 274 L 306 276 L 304 276 L 303 275 L 302 275 L 301 274 L 301 266 L 294 266 L 293 267 L 294 268 L 294 274 L 292 276 L 288 276 L 287 275 L 287 266 L 285 266 L 284 265 L 284 232 L 288 228 L 289 228 L 295 222 L 296 222 L 298 220 L 298 180 L 300 178 L 300 177 L 302 175 L 302 174 L 306 170 L 306 169 L 309 166 L 309 165 L 311 163 L 311 162 L 314 159 L 314 158 L 317 155 L 317 154 L 320 151 L 320 150 L 322 148 L 322 147 L 326 143 L 326 142 L 329 139 L 329 138 L 331 136 L 331 135 L 334 132 L 334 131 L 337 128 L 337 127 L 339 125 L 339 124 L 340 123 L 340 82 L 341 81 L 343 81 L 346 78 L 346 76 L 347 75 L 347 73 L 346 72 L 346 70 L 344 68 L 343 68 L 342 67 Z" />
</g>
</svg>